<svg xmlns="http://www.w3.org/2000/svg" width="1000" height="1000" viewBox="0 0 1000 1000">
  <defs>
    <style>
      .cls-1 {
        fill: #9558b2;
      }

      .cls-2 {
        fill: #b3b3b3;
      }

      .cls-3 {
        fill: #4063d8;
      }

      .cls-4 {
        fill: #389826;
      }

      .cls-5 {
        fill: #cb3c33;
      }
    </style>
  </defs>
  <title>logo</title>
  <g id="恒星">
    <circle class="cls-1" cx="499.92" cy="500.2" r="141.8"/>
  </g>
  <g id="蓝">
    <path class="cls-2" d="M871.72,669.44a224.34,224.34,0,0,1-18,31.89,313.2,313.2,0,0,1-20.45,27.16,397.34,397.34,0,0,1-46.26,46.21,413.58,413.58,0,0,1-51.86,37.53A402.33,402.33,0,0,1,678.89,841a385.62,385.62,0,0,1-120.3,28.53,407.42,407.42,0,0,1-60.65-.69L483,867.12c-1.24-.14-2.48-.27-3.72-.43l-3.7-.61-7.39-1.21-7.36-1.22c-1.23-.17-2.44-.45-3.66-.71l-3.65-.79L439,859l14.83.35,3.69.09c1.23,0,2.46.07,3.69,0l7.39-.19,7.35-.2,3.67-.1c1.23-.07,2.45-.18,3.67-.27l14.62-1.13A390.52,390.52,0,0,0,555,847.29,353.34,353.34,0,0,0,739.11,727.2,323.49,323.49,0,0,0,769,683.1a228.2,228.2,0,0,0,11.09-22.81,131.73,131.73,0,0,0,7.08-21.6Z"/>
    <circle class="cls-3" cx="828.77" cy="654.45" r="46.22"/>
    <animateTransform attributeName="transform" begin="0s" dur="3s" type="rotate" from="360 500 500" to="0 500 500" repeatCount="indefinite"/>
  </g>
  <g id="绿">
    <path class="cls-2" d="M284.32,701.36a183,183,0,0,1-26.25-36.91,248,248,0,0,1-16.87-38.68,314.59,314.59,0,0,1-15.92-79.32,292.69,292.69,0,0,1,4.87-78.77C235.38,442.1,244.54,417.49,258,396c-8.65,23.84-12.15,48.78-11.93,73.28A268.46,268.46,0,0,0,256.82,541a274.72,274.72,0,0,0,28.05,64.83,197,197,0,0,0,19.67,27.35,121.19,121.19,0,0,0,22.55,20.54Z"/>
    <circle class="cls-4" cx="305.24" cy="677.46" r="34.53"/>
    <animateTransform attributeName="transform" begin="0s" dur="2s" type="rotate" from="360 500 500" to="0 500 500" repeatCount="indefinite"/>
  </g>
  <g id="棕">
    <path class="cls-2" d="M534.09,28.59a461.28,461.28,0,0,1,56,14.83q27.13,9,52.94,20.46a512.82,512.82,0,0,1,50.11,25.56A357.51,357.51,0,0,1,739,121a352.18,352.18,0,0,0-50.73-20.86,495.31,495.31,0,0,0-52.54-13.91c-17.68-3.68-35.46-6.49-53.2-8.37a416.66,416.66,0,0,0-52.62-2.45Z"/>
    <circle class="cls-5" cx="532.5" cy="51.39" r="24.32"/>
    <animateTransform attributeName="transform" begin="0s" dur="5s" type="rotate" from="360 500 500" to="0 500 500" repeatCount="indefinite"/>
  </g>
</svg>